<svg id="Layer_1" data-name="Layer 1" xmlns="http://www.w3.org/2000/svg" viewBox="0 0 1457.9 610.3"><title>logo-black</title><path d="M183.1,165.6V369.4c0,46.9-38.5,85-85.4,85A85.8,85.8,0,0,1,21,407.5L144.2,260.3V165.6Z" transform="translate(-21 -163.2)"/><path d="M354.3,454.8c-79,0-143.2-65.4-143.2-146s64.2-145.6,143.2-145.6,142.8,65,142.8,145.6S432.9,454.8,354.3,454.8Z" transform="translate(-21 -163.2)"/><path d="M615,323.6l73.8,91.4v36.1H529.2V165.6H682.8v36.1l-69.4,85.8h69.4v36.1Z" transform="translate(-21 -163.2)"/><path d="M888.2,415.1v36.1H728.9V165.6h96.3V415.1Z" transform="translate(-21 -163.2)"/><path d="M126.5,627.1,240.8,770.3H33.1V484.7H210.7V522Z" transform="translate(-21 -163.2)"/><path d="M476.3,770.3H268.9V484.7H374.8a79.6,79.6,0,1,1,0,159.2Z" transform="translate(-21 -163.2)"/><path d="M618.2,478.7,739.8,770.3H496.3Z" transform="translate(-21 -163.2)"/><path d="M980,484.7V658.4c0,63.4-48.1,114.7-107.9,114.7S763.8,721.7,763.8,658.4V484.7Z" transform="translate(-21 -163.2)"/><path d="M1186.2,696.1c0,50.1-45.3,77.4-93.1,77.4-22.5,0-69.4-6.8-85-24.9l79-105.5c-34.1-16-72.2-41.3-72.2-85,0-50.5,42.9-76.6,91-76.6,30.5,0,61.4,9.2,87.8,24.5-81,105.1-80.6,105.1-80.6,105.1C1149.7,625.1,1186.2,651.5,1186.2,696.1Z" transform="translate(-21 -163.2)"/><path d="M1311.7,642.7l73.8,91.4v36.1H1225.9V484.7h153.6v36.1l-69.4,85.8h69.4v36.1Z" transform="translate(-21 -163.2)"/><path d="M1448.5,772.3a30.9,30.9,0,0,1-30.9-30.9c0-16.8,14-30.5,30.9-30.5a30.7,30.7,0,0,1,0,61.4Z" transform="translate(-21 -163.2)"/></svg>